<svg xmlns="http://www.w3.org/2000/svg" viewBox="0 0 161.55 34.13"><g data-name="Layer 2"><path d="M12.75 8.4h9.64l-1.49 5.72A3.57 3.57 0 0119.62 16a3.46 3.46 0 01-2.17.72H13a4.31 4.31 0 00-2.71.9 4.7 4.7 0 00-1.64 2.43 4.63 4.63 0 00-.07 2.18 4.92 4.92 0 00.83 1.81 4.24 4.24 0 001.54 1.26 4.54 4.54 0 002.05.47h2.7a1.53 1.53 0 011.26.62 1.49 1.49 0 01.27 1.38l-1.7 6.32h-3a12 12 0 01-5.65-1.35 12.72 12.72 0 01-4.28-3.52 12.49 12.49 0 01-2.32-5 12.27 12.27 0 01.15-5.83l.17-.69a12.52 12.52 0 011.72-3.77A12.81 12.81 0 015.1 11a12.52 12.52 0 013.56-1.91 12.24 12.24 0 014.09-.69zm4.87 25.73L26 2.64A3.58 3.58 0 0127.3.73 3.41 3.41 0 0129.48 0h8.91A12.1 12.1 0 0144 1.34 12.74 12.74 0 0150.68 10a12 12 0 01-.17 5.82l-.17.64a12.69 12.69 0 01-1.71 3.78 12.53 12.53 0 01-2.75 3 12.56 12.56 0 01-7.66 2.61H30.5L32 20a3.57 3.57 0 011.27-1.88 3.51 3.51 0 012.18-.73H38A4.46 4.46 0 0042.32 14a4.24 4.24 0 00.06-2.09 4.76 4.76 0 00-.83-1.81A4.61 4.61 0 0040 8.85a4.43 4.43 0 00-2-.49h-4.81L27 31.52a3.64 3.64 0 01-1.28 1.88 3.38 3.38 0 01-2.13.73zm53.19-16.81l.13-.47a.62.62 0 00-.11-.58.66.66 0 00-.53-.27H56.44A3.5 3.5 0 0153 13.22a3.73 3.73 0 010-1.66l.86-3.24h18.79a6.6 6.6 0 013.19.77 7.26 7.26 0 012.41 2 7.15 7.15 0 011.33 2.84 7 7 0 01-.07 3.3l-3.37 12.55a5.77 5.77 0 01-5.63 4.3L56.65 34a7.35 7.35 0 01-5.89-2.88 7.73 7.73 0 01-1.36-3 7 7 0 01.08-3.44l.17-.64a7.16 7.16 0 011-2.22 7.86 7.86 0 011.65-1.75A7.4 7.4 0 0154.39 19a7.29 7.29 0 012.43-.4h11.64l-.85 3.2a3.62 3.62 0 01-1.28 1.88 3.41 3.41 0 01-2.13.72H59a.89.89 0 00-.93.73.86.86 0 00.17.83.94.94 0 00.76.36h8.4a1.33 1.33 0 00.81-.26 1.08 1.08 0 00.43-.68l.08-.34zM95.64 8.4a12.09 12.09 0 015.69 1.35 12.72 12.72 0 014.29 3.56 12.49 12.49 0 012.32 5.08 12.07 12.07 0 01-.19 5.84l-2.13 8a2.31 2.31 0 01-.92 1.36 2.54 2.54 0 01-1.55.52h-4.61a1.57 1.57 0 01-1.54-2l2.56-9.68a4.24 4.24 0 00.07-2.09 4.71 4.71 0 00-.84-1.81 4.53 4.53 0 00-3.58-1.78h-4.78l-4.13 15.5a2.36 2.36 0 01-.92 1.36 2.6 2.6 0 01-1.6.52h-4.57a1.52 1.52 0 01-1.21-.62 1.48 1.48 0 01-.28-1.39L84 8.4zm25.12 8.13a2.16 2.16 0 00-.72 1l-1.92 7.25a1.21 1.21 0 00.21 1.11 1.23 1.23 0 001 .51H137l-1.37 5.07a3.58 3.58 0 01-1.28 1.88 3.36 3.36 0 01-2.13.73h-16.06a6.83 6.83 0 01-3.2-.75 7.12 7.12 0 01-2.41-2 7.51 7.51 0 01-1.33-2.86 6.61 6.61 0 01.11-3.27l2.6-9.68a9.69 9.69 0 011.33-2.9 9.55 9.55 0 014.84-3.73 9.24 9.24 0 013.13-.54h11.39a6.75 6.75 0 013.2.77 7.27 7.27 0 012.41 2 6.77 6.77 0 011.3 2.85 7.18 7.18 0 01-.08 3.29l-.77 2.9a5.52 5.52 0 01-2.07 3.09 5.66 5.66 0 01-3.52 1.18h-12.88l.85-3.16a3.39 3.39 0 011.24-1.88 3.46 3.46 0 012.17-.72h5.21a.91.91 0 00.94-.73l.17-.64a1 1 0 00-.94-1.24h-7.93a1.83 1.83 0 00-1.16.47zM137 34.13l8.58-32.21a2.48 2.48 0 01.91-1.39 2.63 2.63 0 011.6-.53h4.57a1.59 1.59 0 011.3.62 1.47 1.47 0 01.25 1.38l-6.4 23.77a10.72 10.72 0 01-1.52 3.41 11 11 0 01-2.47 2.62 11.33 11.33 0 01-3.18 1.71 11 11 0 01-3.64.62zM155.68 3a2.91 2.91 0 01.39-1.47 3 3 0 011.07-1.08 3 3 0 011.48-.39 2.9 2.9 0 011.46.39 3 3 0 011.08 1.07 3 3 0 010 2.92 2.82 2.82 0 01-1.06 1.08 2.88 2.88 0 01-1.49.41A2.93 2.93 0 01155.68 3zm.41 0a2.43 2.43 0 00.34 1.26 2.52 2.52 0 003.45.92 2.54 2.54 0 00.92-.92 2.41 2.41 0 00.34-1.26 2.44 2.44 0 00-.34-1.27 2.62 2.62 0 00-.92-.92 2.41 2.41 0 00-1.26-.34 2.44 2.44 0 00-1.27.34 2.62 2.62 0 00-.92.92 2.42 2.42 0 00-.34 1.27zm3.72-.72a1 1 0 01-.17.56.93.93 0 01-.47.35l.93 1.55h-.65l-.81-1.39h-.53v1.39h-.58V1.26h1a1.46 1.46 0 01.95.25 1 1 0 01.33.77zm-1.7.59h.42a.72.72 0 00.5-.16.5.5 0 00.19-.41.51.51 0 00-.16-.42.94.94 0 00-.53-.13h-.42z" fill="#f26c32" data-name="Layer 3"/></g></svg>