<svg xmlns="http://www.w3.org/2000/svg" viewBox="0 0 1200 512">
  <defs>
    <style>
      .a, .b {
        fill: #0080c4;
      }

      .a {
        stroke: #0080c4;
        stroke-linejoin: round;
        stroke-width: 0.18px;
      }

      .c {
        fill: #5f6062;
      }
    </style>
  </defs>
  <title>ST</title>
  <g>
    <path class="a" d="M432.72,389.92a179.31,179.31,0,0,1-43.94,32.71c-92.18,49.22-207.14,14.53-256.37-78-49.55-92.17-14.53-206.81,78-256.36a187.57,187.57,0,0,1,193.26,9.25l-24.11,30.39s43.93-9.91,88.2,8.26C440.64,96.23,439,52.29,439,52.29L416.2,81c-61.78-41-144-48.23-214.74-10.24C99.38,125.63,60.39,252.49,115.23,354.9S296.93,496,399.35,441.13a206.21,206.21,0,0,0,62.44-51.21Z"/>
    <path class="b" d="M245.07,208.55H216.33V184.43c0-3.3-.67-5.94-2.32-7.92a7.15,7.15,0,0,0-5.94-2.65q-5,0-6.94,4c-1.32,2.31-2,6.93-2,12.22,0,12.88,2.64,23.13,8.92,32q4,6.43,13.87,17.84a43.22,43.22,0,0,0,5.62,5.61q5.94,7.44,8.92,11.89a71.42,71.42,0,0,1,5.28,11.24c3.31,8.26,5,18.83,5,32V307c0,8.92-1.65,16.52-5,23.13a35.18,35.18,0,0,1-13.21,15.19c-5.62,3.64-12.89,5.29-20.81,5.29-11.9,0-20.82-3.64-27.09-10.24-6.28-6.94-9.25-16.85-9.25-30.07V290.48h28.74v26.1c0,3.3.66,5.62,2,7.27a8.27,8.27,0,0,0,5.95,2.64c3.63,0,6.27-1.32,7.59-4,1.33-2.32,2-7.27,2-13.88V299.4a103,103,0,0,0-.66-11.23,39.56,39.56,0,0,0-2-7.93A40.12,40.12,0,0,0,209.39,270a226.54,226.54,0,0,0-14.87-17.51c-5.62-6.94-10.24-12.88-13.54-18.83a67.42,67.42,0,0,1-7.27-17.84c-1.65-5.95-2.31-13.22-2.31-20.81,0-14.54,3.3-25.44,9.25-33.7,6.27-7.6,15.19-11.56,26.76-11.56,11.89,0,21.14,3.3,28.08,9.91s9.91,15.85,9.91,28.08v20.81ZM285.7,192v7.27a55.89,55.89,0,0,1,9.91-6.94,22.11,22.11,0,0,1,9.91-2c8.92,0,15.86,5,21.48,14.54,5.61-9.58,13.54-14.54,23.12-14.54,8.26,0,15.2,3.63,19.5,10.24,4.29,6.94,6.93,16.85,6.93,29.07V348.63h-26.1V231.35c0-11.9-3.63-17.51-10.24-17.51q-4.95,0-6.94,2c-1.32,1.32-2,4-2,7.27v126.2H305.85V228.7c0-4.95-.66-8.92-2.31-11.56a7.76,7.76,0,0,0-6.94-4,9,9,0,0,0-5.28,1.32,16.87,16.87,0,0,0-5.29,4V349H260.59V192Zm150,9.25V192h26.1V349h-26.1V338.71h-1a31.79,31.79,0,0,1-7.93,8.26,17.87,17.87,0,0,1-9.91,2.65,21.79,21.79,0,0,1-13.22-4.3c-4-2.64-6.93-7.27-8.92-12.22a56.75,56.75,0,0,1-3.3-19.16V232c0-12.23,2.31-22.47,6.94-30.07,4.95-7.6,10.9-11.56,18.5-11.56,4,0,7.6.66,10.24,2.31a23.45,23.45,0,0,1,7.6,8.26C434.7,201.28,435.69,201.28,435.69,201.28Zm0,116.29V220.11c-2.64-4-5.95-6.27-9.25-6.27-5.95,0-8.92,5.28-8.92,15.19v87.88c0,3.63.66,6.28,2.31,8.26s3.63,3.3,5.95,3.3c2,0,4-1.32,5.94-3.3C434,322.2,435.69,319.88,435.69,317.57Zm67.72-107,.33-2.64c.33-.66.33-1.32.66-1.65a1.14,1.14,0,0,1,.34-.66c2-6,3.3-9.91,4.29-11.57s2.64-2.31,5-2.31c2.64,0,5,1.32,5.61,3.31v25.43a9,9,0,0,0-5.94-1.65c-7.27,0-10.91,7.93-10.91,23.46v107h-26.1V192h26.1v18.5Zm35.68-48.89h26.1V192h6.94V214.5h-6.94V349h-26.1V214.5h-6.27V192h6.27Zm114.64,116H610.45v40.63c0,5.95,2.65,9.25,8.92,9.25,6,0,8.92-4,8.92-12.22v-15.2h25.44v18.5a30.16,30.16,0,0,1-9.58,22.8c-6.28,5.94-14.54,8.92-24.12,8.92-10.9,0-19.49-3.31-25.44-9.58-6.27-6.28-9.58-15.2-9.58-26.1V226.72a43.06,43.06,0,0,1,2.32-15.2,31.88,31.88,0,0,1,18.5-18.5,41.36,41.36,0,0,1,14.86-2.31c9.91,0,18.5,3.3,24.45,9.58s9.25,14.87,9.25,25.11v51.87Zm-43.28-21.15h17.84v-32.7c0-3.31-.66-5.95-2.31-7.6a9.46,9.46,0,0,0-6.94-2.64,7.17,7.17,0,0,0-5.94,2.64,10.63,10.63,0,0,0-2.32,7.27v33ZM696,210.53l.33-2.64c.33-.66.33-1.32.66-1.65a1.15,1.15,0,0,1,.33-.66c2-6,3.3-9.91,4.29-11.57a5.57,5.57,0,0,1,5-2.31c2.64,0,4.95,1.32,5.62,3.31v25.43a9.05,9.05,0,0,0-6-1.65c-7.27,0-10.9,7.93-10.9,23.46v107H668.93V192H695v18.5Z"/>
    <path class="c" d="M706.59,150.41h89.86v25.1H765.72V349H736.65V175.84H706.59V150.41ZM786.54,307V228a44.24,44.24,0,0,1,4.29-19.16c2.65-5.62,7.27-9.91,12.23-13.21a31.78,31.78,0,0,1,17.51-5c7.26,0,13.21,1.65,18.5,5.29,5.28,3.3,9.25,7.93,12.22,14.53A55.39,55.39,0,0,1,855.58,232v76.64c0,8.26-1.32,15.86-4,21.81A32.68,32.68,0,0,1,839.73,345c-5.29,3.64-11.24,5.29-18.5,5.29-9.58,0-17.18-2.65-23.13-8.92a35,35,0,0,1-7.93-12.89c-1.65-5.28-2.64-12.22-3.63-21.47Zm25.77-80.94v87.55c0,4,.66,7.6,2.31,9.58a7.92,7.92,0,0,0,6.28,3.63,7.47,7.47,0,0,0,6.27-3.63c1.65-2.31,2.32-5.29,2.32-9.25V226.39c0-3.63-.67-6.94-2.32-9.25s-3.63-3.63-6.27-3.63a7.51,7.51,0,0,0-6.28,3.3C813,219.12,812.31,222.1,812.31,226.06ZM872.1,307V228a44.1,44.1,0,0,1,4.3-19.16,31.32,31.32,0,0,1,12.22-13.21,32.61,32.61,0,0,1,17.51-5c6.94,0,13.21,1.65,18.5,5.29a29.69,29.69,0,0,1,12.22,14.53,55.21,55.21,0,0,1,4.3,21.48v76.64a61,61,0,0,1-4,21.81A32.62,32.62,0,0,1,925.29,345c-5.28,3.64-11.23,5.29-18.5,5.29-9.58,0-17.18-2.65-23.12-8.92a34.9,34.9,0,0,1-7.93-12.89A94.55,94.55,0,0,1,872.1,307Zm25.44-80.94v87.55c0,4,.66,7.6,2.31,9.58a8,8,0,0,0,6.28,3.63c2.31,0,4.3-1.32,6.28-3.63,1.65-2.31,2.31-5.29,2.31-9.25V226.39c0-3.63-.66-6.94-2.31-9.25s-3.64-3.63-6.28-3.63a7.53,7.53,0,0,0-6.28,3.3A18.17,18.17,0,0,0,897.54,226.06ZM959,150.41h26.1V349H959Zm105.72,90.52h-21.48V229.69c0-9.91-2.64-15.19-8.26-15.19s-8.26,4.95-8.26,14.53a67,67,0,0,0,.66,9.25,24.24,24.24,0,0,0,4,7.6c2,2.64,5.29,6.28,9.91,11.23a99.87,99.87,0,0,1,13.21,16.52,61.24,61.24,0,0,1,7.6,16.52,60.34,60.34,0,0,1,2.32,17.51c0,9.25-1.33,17.18-4,23.46s-6.28,11.23-11.56,14.86a33.77,33.77,0,0,1-18.5,5.29q-14.86,0-22.8-9.91c-5.28-6.28-7.6-16.52-7.6-29.4v-11.9h22.47v8.59c0,6.28.66,10.9,2,13.55s3.31,4,5.95,4c5.94,0,8.92-5.62,8.92-16.52,0-5.28-.33-9.58-1.65-13.54s-2.32-7.27-4.3-9.25c-2-2.32-7.27-7.93-15.2-16.85-5.94-6.94-10.9-13.22-13.54-19.49a52.94,52.94,0,0,1-4.3-20.49,46.44,46.44,0,0,1,2.32-15.52c1.65-5,3.63-8.92,6.94-12.23a27.72,27.72,0,0,1,10.24-8.26c4-2,8.26-2.64,13.21-2.64,10.9,0,18.5,3.64,23.46,10.24,5.28,6.94,7.6,17.51,7.6,31.72v7.6Zm29.73,77.63a16.07,16.07,0,0,1,10.9,4.3,17.62,17.62,0,0,1,4.3,11.23c0,4-1.66,7.6-4.3,10.9s-6.94,4.3-10.9,4.3-7.6-1.66-10.9-4.3c-2.65-3.3-4.3-6.28-4.3-10.9a17.57,17.57,0,0,1,4.3-11.23C1086.84,320.21,1090.47,318.56,1094.44,318.56Z"/>
  </g>
</svg>
