<?xml version="1.0" encoding="UTF-8" standalone="no"?>
<svg width="167px" height="34px" viewBox="0 0 167 34" version="1.1" xmlns="http://www.w3.org/2000/svg" xmlns:xlink="http://www.w3.org/1999/xlink">
    <!-- Generator: Sketch 39.1 (31720) - http://www.bohemiancoding.com/sketch -->
    <title>SailPoint_Logo_NavBar</title>
    <desc>Created with Sketch.</desc>
    <defs>
        <polygon id="path-1" points="0 33.9348041 166.709746 33.9348041 166.709746 0 0 0"></polygon>
    </defs>
    <g id="Navigation" stroke="none" stroke-width="1" fill="none" fill-rule="evenodd">
        <g id="Navigation-Bar-(Desktop)" transform="translate(-557.000000, -17.000000)">
            <g id="1---Nav">
                <g id="SailPoint_Logo_NavBar" transform="translate(557.000000, 17.000000)">
                    <path d="M165.19081,29.4304 L165.26511,29.4304 C165.376906,29.4304 165.542517,29.4135753 165.542517,29.2292041 C165.542517,29.0280082 165.373434,29.0209979 165.258513,29.0209979 L165.19081,29.0209979 L165.19081,29.4304 L165.19081,29.4304 Z M165.603276,30.133534 L165.19081,29.5944412 L165.19081,30.133534 L165.008534,30.133534 L165.008534,28.8573072 L165.238028,28.8573072 C165.339756,28.8573072 165.725141,28.8604619 165.725141,29.2221938 C165.725141,29.4167299 165.589735,29.5565856 165.397043,29.577266 L165.833118,30.133534 L165.603276,30.133534 L165.603276,30.133534 Z M165.363365,28.5159052 C164.808898,28.5159052 164.393307,28.9354722 164.393307,29.4952454 C164.393307,30.0550186 164.808898,30.4749361 165.363365,30.4749361 C165.917486,30.4749361 166.333423,30.0550186 166.333423,29.4952454 C166.333423,28.9354722 165.917486,28.5159052 165.363365,28.5159052 L165.363365,28.5159052 Z M165.363365,28.3248742 C166.02581,28.3248742 166.522644,28.8264619 166.522644,29.4952454 C166.522644,30.1640289 166.02581,30.665967 165.363365,30.665967 C164.70092,30.665967 164.204087,30.1640289 164.204087,29.4952454 C164.204087,28.8264619 164.70092,28.3248742 165.363365,28.3248742 L165.363365,28.3248742 Z" id="Fill-1" fill="#FFFFFF"></path>
                    <path d="M40.2476597,23.0038041 C40.3230006,24.6722577 41.6371274,26.150732 44.1153936,26.150732 C46.3308343,26.150732 47.8706368,25.0890206 47.9077865,23.3830619 C47.9456306,22.2077835 47.4199798,21.1842784 44.791379,20.4261134 L41.6746243,19.5540309 C35.9671129,17.7723608 34.990458,14.398299 34.990458,12.0480928 C34.990458,7.38518557 38.9335328,4.23860825 43.8900651,4.23860825 C48.8844414,4.23860825 52.6393374,7.23341237 52.6393374,12.2377216 L47.1568073,12.2377216 C47.1568073,10.4939072 45.9930152,9.2807732 43.8150713,9.2807732 C41.8999528,9.2807732 40.4729881,10.342134 40.4729881,11.8966701 C40.4729881,12.5787732 40.7358135,13.8297629 43.2515765,14.5500722 L46.3308343,15.5357216 C52.6018405,17.3555979 53.5031545,20.9189381 53.4278135,23.4209175 C53.3528198,28.6148557 48.6966098,31.0786289 44.1153936,31.0786289 C38.4828759,31.0786289 34.7279798,27.7049175 34.7279798,23.0038041 L40.2476597,23.0038041 Z" id="Fill-3" fill="#FFFFFF"></path>
                    <path d="M63.884062,25.9989237 C66.0245089,25.9989237 68.1271119,24.4443876 68.1271119,21.7906351 C68.1271119,19.137233 66.0245089,17.5826969 63.884062,17.5826969 C61.7061181,17.5826969 59.4906773,19.2508 59.4906773,21.7906351 C59.4906773,24.3308206 61.7061181,25.9989237 63.884062,25.9989237 L63.884062,25.9989237 Z M68.4746524,28.6523258 C67.34801,30.3586351 64.7197563,31.0028825 63.3677854,31.0028825 C58.8990599,31.0028825 54.4306815,27.4773979 54.4306815,21.7906351 C54.4306815,16.1042227 58.8990599,12.5787381 63.3677854,12.5787381 C64.4944279,12.5787381 67.1226815,12.9579959 68.4746524,14.9292948 L68.4746524,12.9579959 L73.6565131,12.9579959 L73.6565131,30.6618309 L68.4746524,30.6618309 L68.4746524,28.6523258 Z" id="Fill-5" fill="#FFFFFF"></path>
                    <mask id="mask-2" fill="white">
                        <use xlink:href="#path-1"></use>
                    </mask>
                    <g id="Clip-8"></g>
                    <path d="M76.2089397,30.6616907 L81.3908004,30.6616907 L81.3908004,12.9578557 L76.2089397,12.9578557 L76.2089397,30.6616907 Z M78.7996965,4.0302268 C80.5648274,4.0302268 81.9914449,5.35727835 81.9914449,7.10109278 C81.9914449,8.84490722 80.5648274,10.2098144 78.7996965,10.2098144 C77.0349127,10.2098144 75.5329543,8.84490722 75.5329543,7.10109278 C75.5329543,5.35727835 77.0349127,4.0302268 78.7996965,4.0302268 L78.7996965,4.0302268 Z" id="Fill-7" fill="#FFFFFF" mask="url(#mask-2)"></path>
                    <polygon id="Fill-9" fill="#FFFFFF" mask="url(#mask-2)" points="83.9437131 30.6616907 89.1630707 30.6616907 89.1630707 3.32884536 83.9437131 3.32884536"></polygon>
                    <path d="M97.1233462,9.43226598 L97.1233462,16.7867814 L101.967388,16.7867814 C104.107835,16.7867814 105.23413,14.815132 105.23413,13.1095237 C105.23413,11.4792763 104.182828,9.43226598 102.117722,9.43226598 L97.1233462,9.43226598 Z M91.6036663,4.54187423 L102.230213,4.54187423 C108.125556,4.54187423 110.754157,8.82587423 110.754157,13.1095237 C110.754157,17.4310289 108.125556,21.6393175 102.230213,21.6393175 L97.1233462,21.6393175 L97.1233462,30.6615856 L91.6036663,30.6615856 L91.6036663,4.54187423 Z" id="Fill-10" fill="#FFFFFF" mask="url(#mask-2)"></path>
                    <path d="M123.144689,21.7530247 C123.144689,19.3646124 121.342408,17.7343649 119.164464,17.7343649 C117.024017,17.7343649 115.22139,19.3646124 115.22139,21.7530247 C115.22139,24.2167979 117.024017,25.8091897 119.164464,25.8091897 C121.342408,25.8091897 123.144689,24.2167979 123.144689,21.7530247 M110.077026,21.7530247 C110.077026,16.1805299 114.207585,12.578633 119.164464,12.578633 C124.120997,12.578633 128.289053,16.1805299 128.289053,21.7530247 C128.289053,27.3255196 124.120997,30.9649216 119.164464,30.9649216 C114.207585,30.9649216 110.077026,27.3255196 110.077026,21.7530247" id="Fill-11" fill="#FFFFFF" mask="url(#mask-2)"></path>
                    <path d="M129.790247,30.6616907 L134.972108,30.6616907 L134.972108,12.9578557 L129.790247,12.9578557 L129.790247,30.6616907 Z M132.381004,4.0302268 C134.145788,4.0302268 135.572753,5.35727835 135.572753,7.10109278 C135.572753,8.84490722 134.145788,10.2098144 132.381004,10.2098144 C130.61622,10.2098144 129.114262,8.84490722 129.114262,7.10109278 C129.114262,5.35727835 130.61622,4.0302268 132.381004,4.0302268 L132.381004,4.0302268 Z" id="Fill-12" fill="#FFFFFF" mask="url(#mask-2)"></path>
                    <path d="M142.687925,30.6617608 L137.468567,30.6617608 L137.468567,12.9579258 L142.687925,12.9579258 L142.687925,15.535967 C143.626736,13.7542969 145.691842,12.578668 147.757295,12.578668 C151.700022,12.578668 154.178636,15.0427918 154.178636,20.0849567 L154.178636,30.6617608 L148.958931,30.6617608 L148.958931,21.2220289 C148.958931,18.8718227 147.682301,17.6968948 145.917517,17.6968948 C144.077393,17.6968948 142.687925,18.6064825 142.687925,21.2980907 L142.687925,30.6617608 Z" id="Fill-13" fill="#FFFFFF" mask="url(#mask-2)"></path>
                    <polygon id="Fill-14" fill="#FFFFFF" mask="url(#mask-2)" points="166.709607 12.9579608 166.709607 17.1276928 163.377246 17.1276928 163.377246 30.6617959 158.195038 30.6617959 158.195038 17.1276928 155.003637 17.1276928 155.003637 12.9579608 158.195038 12.9579608 158.195038 6.17233196 163.377246 6.17233196 163.377246 12.9579608"></polygon>
                    <path d="M18.8498212,7.50839175 C18.8498212,7.50839175 28.264316,16.9982474 23.9278711,26.1659794 C23.9278711,26.1659794 18.6154657,26.6237526 12.5624969,27.7198144 C12.5624969,27.7198144 22.2877297,20.4620412 18.8498212,7.50839175" id="Fill-15" fill="#FFFFFF" mask="url(#mask-2)"></path>
                    <path d="M17.126041,1.17264948 C17.4860805,2.04928866 17.9190306,3.2175567 18.3186501,4.60384536 L18.3186501,4.60419588 C18.3648268,4.76438144 18.4110035,4.92982474 18.4568331,5.09842268 C24.3150264,6.15627835 28.7629204,11.3225258 28.7629204,17.5410206 C28.7629204,24.5243402 23.1554006,30.1855155 16.2382676,30.1855155 C13.1857437,30.1855155 10.3894484,29.0817423 8.21636528,27.2499485 C10.171411,26.9036392 11.9757748,26.8829588 11.9757748,26.8829588 C19.8209557,20.0668351 18.7918746,10.6362165 17.1517333,4.947 C16.2899994,1.95675258 15.2591823,0.000175257732 15.2591823,0.000175257732 C15.0050368,1.73347423 14.6946459,3.41034021 14.3408559,5.03357732 C12.6239848,12.9068557 9.79192869,19.4204845 6.34568753,23.9154948 L5.88218441,24.6522784 C4.51424262,22.6259485 3.71396195,20.178299 3.71396195,17.5410206 C3.71396195,11.6779485 7.66710541,6.74864948 13.0291595,5.31749485 C13.0704755,5.13452577 13.1138746,4.95401031 13.1541491,4.76963918 C13.4027395,3.62906186 13.6235545,2.47726804 13.8172884,1.32968041 C5.9974526,2.50986598 3.47193345e-05,9.31792784 3.47193345e-05,17.5410206 C3.47193345e-05,26.5951856 7.27026341,33.9349794 16.2382676,33.9349794 C25.2066189,33.9349794 32.4765004,26.5951856 32.4765004,17.5410206 C32.4765004,8.78794845 25.6812322,1.63813402 17.126041,1.17264948" id="Fill-16" fill="#FFFFFF" mask="url(#mask-2)"></path>
                </g>
            </g>
        </g>
    </g>
</svg>