<?xml version="1.0" encoding="UTF-8"?>
<svg width="311px" height="52px" viewBox="0 0 311 52" version="1.1" xmlns="http://www.w3.org/2000/svg" xmlns:xlink="http://www.w3.org/1999/xlink">
    <!-- Generator: Sketch 50.2 (55047) - http://www.bohemiancoding.com/sketch -->
    <title>Logo</title>
    <desc>Created with Sketch.</desc>
    <defs></defs>
    <g id="Page-1" stroke="none" stroke-width="1" fill="none" fill-rule="evenodd">
        <g id="Booth" transform="translate(-64.000000, -115.000000)" fill-rule="nonzero">
            <g id="Logo" transform="translate(64.000000, 115.000000)">
                <path d="M48.3887827,1.21144242 C53.4331731,1.21144242 57.7302465,2.88882424 61.0931735,6.24358788 C64.5495151,9.59835152 66.2309786,13.7918061 66.2309786,18.7307636 C66.2309786,23.5765333 64.5495151,27.7699879 61.0931735,31.2179394 C57.7302465,34.6658909 53.5265878,36.3432727 48.6690266,36.3432727 C43.7180507,36.3432727 39.514392,34.6658909 36.0580504,31.2179394 C32.6017088,27.8631758 30.9202453,23.7629091 30.9202453,18.9171394 C30.9202453,15.7487515 31.6675624,12.7667394 33.2556113,9.97110303 C34.8436601,7.26865455 36.8987821,5.12533333 39.6078067,3.54113939 C42.3168312,1.95694545 45.212685,1.21144242 48.3887827,1.21144242 Z M48.4821973,4.3798303 C45.9600021,4.3798303 43.6246361,5.03214545 41.4760994,6.33677576 C39.2341481,7.64140606 37.5526846,9.31878788 36.2448797,11.555297 C35.0304894,13.6986182 34.3765869,16.121503 34.3765869,18.8239515 C34.3765869,22.8310303 35.7778065,26.1857939 38.486831,28.8882424 C41.2892701,31.5906909 44.5587825,32.9885091 48.4821973,32.9885091 C51.0978072,32.9885091 53.5265878,32.3361939 55.6751245,31.1247515 C57.9170758,29.9133091 59.5985393,28.1427394 60.8129296,25.9994182 C62.0273199,23.856097 62.6812223,21.4332121 62.6812223,18.7307636 C62.6812223,16.121503 62.0273199,13.6986182 60.8129296,11.555297 C59.5985393,9.41197576 57.8236611,7.73459394 55.5817098,6.42996364 C53.4331731,5.03214545 51.0043925,4.3798303 48.4821973,4.3798303 Z" id="Shape" fill="#646569"></path>
                <polygon id="Shape" fill="#646569" points="75.2921985 36.5296485 75.2921985 1.02506667 76.0395156 1.02506667 99.6734191 28.2359273 99.6734191 1.02506667 103.223175 1.02506667 103.223175 36.5296485 102.382444 36.5296485 78.9353694 9.69153939 78.9353694 36.5296485"></polygon>
                <polygon id="Shape" fill="#646569" points="112.844883 1.02506667 116.20781 1.02506667 116.20781 36.4364606 112.844883 36.4364606"></polygon>
                <path d="M233.162937,1.02506667 L226.343669,1.02506667 L216.721961,26.6517333 L236.058791,26.7449212 L239.795377,36.3432727 L246.801475,36.3432727 L233.162937,1.02506667 Z M225.129278,22.4582788 L229.893425,10.3438545 L234.564157,22.4582788 L225.129278,22.4582788 Z" id="Shape" fill="#646569"></path>
                <polygon id="Shape" fill="#646569" points="253.994402 1.02506667 260.720256 1.02506667 260.720256 29.8201212 274.078549 29.8201212 274.078549 36.2500848 253.994402 36.2500848"></polygon>
                <polygon id="Shape" fill="#646569" points="281.271476 1.02506667 287.99733 1.02506667 287.99733 29.8201212 301.355623 29.8201212 301.355623 36.2500848 281.271476 36.2500848"></polygon>
                <path d="M227.1844,51.1601455 C227.1844,51.1601455 210.743424,45.2893091 207.100253,35.4113939 C203.083424,24.4152242 218.123181,21.8991515 233.443181,22.3650909 C241.757084,22.6446545 251.845865,23.856097 251.845865,23.856097 C251.845865,23.856097 227.931718,26.931297 219.244156,33.8272 C210.930253,40.6299152 227.1844,51.1601455 227.1844,51.1601455 Z" id="Shape" fill="#F36E21"></path>
                <path d="M155.815617,27.9563636 C152.639519,31.497503 148.809519,33.2680727 144.138787,33.2680727 C139.841714,33.2680727 136.291957,31.8702545 133.489518,29.1678061 C130.687079,26.4653576 129.285859,23.0174061 129.285859,18.9171394 C129.285859,16.2146909 129.939762,13.7918061 131.154152,11.6484848 C132.368543,9.50516364 134.143421,7.73459394 136.478787,6.42996364 C138.720738,5.12533333 141.242933,4.47301818 143.951958,4.47301818 C146.380738,4.47301818 148.62269,4.93895758 150.677812,5.96402424 C152.639519,6.89590303 154.320983,8.29372121 155.722202,10.0642909 L155.722202,5.49808485 C154.694641,4.65939394 153.573665,3.63432727 152.359275,3.0752 C149.83708,1.86375758 147.034641,1.21144242 143.858543,1.21144242 C138.627323,1.21144242 134.33025,2.88882424 130.873908,6.24358788 C127.417567,9.59835152 125.736103,13.6986182 125.736103,18.6375758 C125.736103,23.2969697 127.137323,27.3040485 130.033177,30.5656242 C133.396104,34.4795152 138.066835,36.4364606 143.951958,36.4364606 C147.034641,36.4364606 149.83708,35.8773333 152.359275,34.6658909 C153.573665,34.1067636 154.788056,33.081697 155.815617,32.2430061 L155.815617,27.9563636 Z" id="Shape" fill="#646569"></path>
                <path d="M12.7978055,17.0533818 C4.76414656,15.376 3.26951234,13.3258667 3.26951234,10.0642909 L3.26951234,9.97110303 C3.26951234,6.52315152 6.53902468,4.00707879 11.116342,4.00707879 C14.9463421,4.00707879 17.9356106,5.12533333 20.924879,7.73459394 L21.2051229,8.01415758 L21.2985375,7.9209697 L21.2985375,4.00707879 C18.2158545,1.95694545 15.1331714,1.11825455 11.2097566,1.11825455 C4.85756119,1.11825455 0,5.03214545 0,10.3438545 L0,10.4370424 C0,15.7487515 3.36292698,18.5443879 11.6768298,20.2217697 C19.4302448,21.8059636 20.924879,23.856097 20.924879,27.0244848 L20.924879,27.1176727 C20.924879,30.8451879 17.561952,33.4544485 12.7978055,33.4544485 C8.12707354,33.4544485 4.76414656,32.0566303 0.934146383,28.5154909 L0.653902468,28.2359273 L0.56048783,28.3291152 L0.56048783,32.3361939 C4.20365873,35.1318303 8.0336589,36.3432727 12.6109762,36.3432727 C19.4302448,36.3432727 24.1009767,32.4293818 24.1009767,26.8381091 L24.1009767,26.7449212 C24.1943913,21.6195879 20.7380497,18.7307636 12.7978055,17.0533818 Z" id="Shape" fill="#646569"></path>
                <polygon id="Shape" fill="#646569" points="206.63318 1.02506667 198.599521 24.9743515 198.412692 25.5334788 198.225863 24.9743515 190.285618 0.931878788 183.840008 0.931878788 175.899764 24.9743515 175.712935 25.5334788 175.526105 24.9743515 167.492447 1.02506667 159.458788 1.02506667 172.163178 36.4364606 178.795618 36.4364606 186.735862 13.3258667 186.922691 12.8599273 187.109521 13.3258667 195.14318 36.4364606 201.682204 36.4364606 214.48001 1.02506667"></polygon>
                <path d="M309.202453,6.24358788 C308.54855,6.89590303 307.801233,7.17546667 306.867087,7.17546667 C305.932941,7.17546667 305.092209,6.89590303 304.531721,6.24358788 C303.971233,5.59127273 303.597575,4.8457697 303.597575,3.91389091 C303.597575,2.98201212 303.971233,2.14332121 304.625136,1.49100606 C305.279038,0.931878788 306.026355,0.559127273 306.960502,0.559127273 C307.894648,0.559127273 308.641965,0.838690909 309.295868,1.49100606 C309.94977,2.14332121 310.230014,2.88882424 310.230014,3.82070303 C310.230014,4.8457697 309.856355,5.59127273 309.202453,6.24358788 Z M304.90538,1.95694545 C304.344892,2.51607273 304.064648,3.16838788 304.064648,3.91389091 C304.064648,4.65939394 304.344892,5.31170909 304.90538,5.87083636 C305.465867,6.42996364 306.11977,6.70952727 306.867087,6.70952727 C307.614404,6.70952727 308.268307,6.42996364 308.828794,5.87083636 C309.389282,5.31170909 309.669526,4.65939394 309.669526,3.91389091 C309.669526,3.16838788 309.389282,2.51607273 308.828794,1.95694545 C308.268307,1.39781818 307.614404,1.11825455 306.867087,1.11825455 C306.11977,1.11825455 305.465867,1.39781818 304.90538,1.95694545 Z M305.372453,5.68446061 L305.372453,1.95694545 C305.559282,1.95694545 305.932941,1.95694545 306.400014,1.95694545 C306.867087,1.95694545 307.147331,1.95694545 307.147331,1.95694545 C307.427575,1.95694545 307.707819,2.05013333 307.894648,2.14332121 C308.268307,2.32969697 308.361721,2.60926061 308.361721,2.98201212 C308.361721,3.26157576 308.268307,3.54113939 308.081477,3.63432727 C307.894648,3.72751515 307.707819,3.82070303 307.427575,3.91389091 C307.614404,4.00707879 307.801233,4.00707879 307.988063,4.10026667 C308.174892,4.28664242 308.268307,4.56620606 308.268307,4.93895758 L308.268307,5.31170909 C308.268307,5.31170909 308.268307,5.40489697 308.268307,5.40489697 C308.268307,5.40489697 308.268307,5.49808485 308.268307,5.49808485 L308.268307,5.59127273 L307.33416,5.59127273 C307.33416,5.49808485 307.240746,5.31170909 307.240746,5.12533333 C307.240746,4.93895758 307.240746,4.75258182 307.147331,4.65939394 C307.053916,4.56620606 307.053916,4.47301818 306.867087,4.3798303 C306.773672,4.3798303 306.680258,4.28664242 306.493428,4.28664242 L306.306599,4.28664242 L306.11977,4.28664242 L306.11977,5.59127273 L305.372453,5.59127273 L305.372453,5.68446061 Z M307.147331,2.70244848 C307.053916,2.60926061 306.867087,2.60926061 306.586843,2.60926061 L306.306599,2.60926061 L306.306599,3.72751515 L306.680258,3.72751515 C306.867087,3.72751515 307.053916,3.72751515 307.240746,3.63432727 C307.33416,3.54113939 307.427575,3.35476364 307.427575,3.16838788 C307.427575,2.98201212 307.33416,2.79563636 307.147331,2.70244848 Z" id="Shape" fill="#646569"></path>
            </g>
        </g>
    </g>
</svg>