<svg xmlns="http://www.w3.org/2000/svg" viewBox="0 0 153.5 19.76"><defs><style>.a{fill:#fff;}</style></defs><title>vitalsmarts-logo-white</title><polygon class="a" points="0 0.49 6.25 0.49 9.55 13.05 12.99 0.49 19.24 0.49 12.68 19.38 6.46 19.38 0 0.49"/><path class="a" d="M21,6.92h5.31V19.38H21Zm0-5.11h5.31V5.33H21Z"/><path class="a" d="M37.93,19.38c-7,.38-7.81-.1-7.81-4.73V9.06H28.23V6h2V1.83h5.23V6H38V9.06H35.43v4.85c0,1.22.18,1.66,1.66,1.66h.84Z"/><path class="a" d="M49.38,13.45c-1.74.84-4,.43-4,2.17,0,.67.64,1.13,1.68,1.13,1.87,0,2.48-1.46,2.35-3.3m.54,5.93L49.66,18a6.69,6.69,0,0,1-5,1.81c-2.53,0-4.78-1.25-4.78-4,0-6.08,9.53-3.32,9.53-5.83,0-1-1.18-1.1-1.74-1.1-.74,0-1.74.16-1.87,1.31H40.66c0-2.84,2-4.5,7.31-4.5,6.33,0,6.71,2.35,6.71,5.54v6.26a1.74,1.74,0,0,0,.71,1.71v.25Z"/><rect class="a" x="57.83" y="0.49" width="5.32" height="18.89"/><path class="a" d="M77.51,6.21c-.13-2.78-2.42-3.65-4.45-3.65C71.53,2.56,69,3,69,5.71,69,7.24,70,7.74,71.08,8l5.13,1.18c2.32.55,4.07,1.95,4.07,4.8,0,4.25-4,5.42-7,5.42-3.33,0-4.62-1-5.42-1.72A5.52,5.52,0,0,1,66,13.11h2.28c0,3.25,2.65,4.2,5,4.2,1.75,0,4.7-.45,4.7-3,0-1.88-.87-2.47-3.82-3.17l-3.67-.85C69.25,10,66.61,9.16,66.61,6c0-2.8,1.82-5.55,6.18-5.55,6.28,0,6.9,3.75,7,5.73Z"/><path class="a" d="M83.46,6h2.12V7.91h.05a4.69,4.69,0,0,1,4-2.27,3.61,3.61,0,0,1,3.55,2.17c1.12-1.25,2-2.17,4.09-2.17,1.43,0,4.14.74,4.14,4.5v9.25H99.2V10.75c0-1.84-.56-3.09-2.48-3.09a3.39,3.39,0,0,0-3.14,3.58v8.15H91.33V10.14c0-1.12-.44-2.48-2.09-2.48-1.28,0-3.53.82-3.53,4.44v7.28H83.46Z"/><path class="a" d="M112.89,12.3c-.36.28-.92.48-3.71.84-1.09.15-2.86.48-2.86,2.17a2.11,2.11,0,0,0,2.43,2.33c2.1,0,4.14-1.36,4.14-3.15Zm-8.23-2.47c.1-3.19,2.22-4.45,5.52-4.45,1.07,0,5,.31,5,3.73V16.8c0,.56.28.79.74.79a4.32,4.32,0,0,0,.74-.1v1.63a4.12,4.12,0,0,1-1.23.25c-2,0-2.3-1-2.38-2a6.07,6.07,0,0,1-4.83,2.17c-2.46,0-4.2-1.56-4.2-3.86,0-1.12.33-3.73,4.07-4.19l3.71-.46c.54,0,1.17-.26,1.17-1.59s-1-2.17-3.14-2.17c-2.55,0-2.91,1.56-3.06,2.58Z"/><path class="a" d="M121.51,19.38h-2.25V6h2.12V8.25h0c.9-1.56,2.07-2.61,3.76-2.61a1.83,1.83,0,0,1,.59.08V8h-.85a3.4,3.4,0,0,0-3.42,3.58Z"/><path class="a" d="M131.24,7.71v8.68c0,1,.89,1,1.35,1h.79V19.2c-.82.08-1.46.18-1.69.18-2.22,0-2.71-1.25-2.71-2.86V7.71h-1.81V5.84H129v-4h2.25v4h2.14V7.71Z"/><path class="a" d="M143.17,9.44c0-.84-.33-2.25-3.17-2.25-.69,0-2.66.23-2.66,1.89,0,1.1.69,1.35,2.43,1.79l2.25.56c2.79.69,3.76,1.71,3.76,3.53,0,2.76-2.27,4.42-5.29,4.42-5.29,0-5.68-3.07-5.75-4.68h2.17c.08,1,.38,2.73,3.55,2.73,1.61,0,3.06-.64,3.06-2.12,0-1.07-.74-1.43-2.65-1.92l-2.61-.64c-1.87-.46-3.09-1.4-3.09-3.24,0-2.94,2.43-4.27,5.06-4.27,4.78,0,5.11,3.53,5.11,4.19Z"/><path class="a" d="M150.84.68a2.47,2.47,0,1,1-2.47,2.47A2.47,2.47,0,0,1,150.84.68Zm2,2.47a2,2,0,1,0-4.07,0,2,2,0,1,0,4.07,0Zm-3-1.43H151c.64,0,1,.27,1,.85a.77.77,0,0,1-.78.8L152,4.61h-.44l-.8-1.21h-.47V4.61h-.44ZM150.76,3c.4,0,.75,0,.75-.45s-.32-.43-.63-.43h-.6V3Z"/></svg>